<svg width="366" height="282" viewBox="0 0 366 282" fill="none" xmlns="http://www.w3.org/2000/svg">
<g clip-path="url(#clip0_103_885)">
<path d="M272.464 71.166H57.7802C50.9705 71.166 45.4502 76.6816 45.4502 83.4853V218.535C45.4502 225.338 50.9705 230.854 57.7802 230.854H272.464C279.274 230.854 284.794 225.338 284.794 218.535V83.4853C284.794 76.6816 279.274 71.166 272.464 71.166Z" fill="#5596FE"/>
<path d="M272.464 83.1958H57.7841C57.6218 83.1958 57.4902 83.3273 57.4902 83.4894V218.534C57.4902 218.697 57.6218 218.828 57.7841 218.828H272.464C272.626 218.828 272.758 218.697 272.758 218.534V83.4894C272.758 83.3273 272.626 83.1958 272.464 83.1958Z" fill="#C8DDEF"/>
<path d="M42.3666 242.077L14.4948 276.169C12.5867 278.502 14.2506 282 17.2638 282H313.949C316.987 282 318.638 278.452 316.68 276.128L287.873 241.957C285.92 239.641 283.043 238.306 280.013 238.306H50.3258C47.2381 238.306 44.316 239.691 42.3666 242.077Z" fill="#5596FE"/>
<path d="M13.6835 270.181C13.6835 270.181 11.8665 280.594 16.1006 281.81L32.524 270.181H13.6835Z" fill="#5596FE"/>
<path d="M317.471 270.181C317.471 270.181 319.288 280.594 315.054 281.81L298.63 270.181H317.471Z" fill="#5596FE"/>
<path d="M42.3666 234.629L14.4948 268.721C12.5867 271.054 14.2506 274.552 17.2638 274.552H313.949C316.987 274.552 318.638 271.004 316.68 268.68L287.873 234.509C285.92 232.194 283.043 230.858 280.013 230.858H50.3258C47.2381 230.858 44.316 232.243 42.3666 234.629Z" fill="#EAF2FF"/>
<path d="M50.9838 235.341H80.271L77.2537 240.299H47.3994L50.9838 235.341Z" fill="#5596FE"/>
<path d="M84.0499 235.341H113.337L110.32 240.299H80.4697L84.0499 235.341Z" fill="#5596FE"/>
<path d="M117.12 235.341H146.403L143.39 240.299H113.536L117.12 235.341Z" fill="#5596FE"/>
<path d="M148.908 235.341H177.706L179.821 240.299H146.097L148.908 235.341Z" fill="#5596FE"/>
<path d="M275.092 235.341H245.805L248.822 240.299H278.676L275.092 235.341Z" fill="#5596FE"/>
<path d="M242.026 235.341H212.738L215.756 240.299H245.606L242.026 235.341Z" fill="#5596FE"/>
<path d="M208.955 235.341H179.668L182.685 240.299H212.54L208.955 235.341Z" fill="#5596FE"/>
<path d="M46.1991 243.434H76.8853L73.7273 248.396H42.4409L46.1991 243.434Z" fill="#5596FE"/>
<path d="M80.8505 243.434H111.537L108.379 248.396H77.0923L80.8505 243.434Z" fill="#5596FE"/>
<path d="M115.502 243.434H146.188L143.03 248.396H111.744L115.502 243.434Z" fill="#5596FE"/>
<path d="M148.812 243.434H178.989L181.208 248.396H145.869L148.812 243.434Z" fill="#5596FE"/>
<path d="M281.04 243.434H250.349L253.511 248.396H284.794L281.04 243.434Z" fill="#5596FE"/>
<path d="M246.388 243.434H215.698L218.86 248.396H250.142L246.388 243.434Z" fill="#5596FE"/>
<path d="M211.737 243.434H181.046L184.209 248.396H215.491L211.737 243.434Z" fill="#5596FE"/>
<path d="M41.1288 251.531H73.3547L70.0353 256.489H37.1885L41.1288 251.531Z" fill="#5596FE"/>
<path d="M77.5143 251.531H109.736L106.417 256.489H73.5698L77.5143 251.531Z" fill="#5596FE"/>
<path d="M113.896 251.531H146.118L142.802 256.489H109.956L113.896 251.531Z" fill="#5596FE"/>
<path d="M148.874 251.531H180.558L182.888 256.489H145.782L148.874 251.531Z" fill="#5596FE"/>
<path d="M287.711 251.531H255.485L258.805 256.489H291.652L287.711 251.531Z" fill="#5596FE"/>
<path d="M251.326 251.531H219.104L222.423 256.489H255.27L251.326 251.531Z" fill="#5596FE"/>
<path d="M214.944 251.531H182.718L186.038 256.489H218.885L214.944 251.531Z" fill="#5596FE"/>
<path d="M215.851 272.228H115.303L120.568 260.153H210.586L215.851 272.228Z" fill="#5596FE"/>
<g opacity="0.8" style="mix-blend-mode:soft-light">
<path d="M250.296 82.6537V170.609C250.296 171.941 249.849 173.169 249.099 174.153C248.032 175.555 246.339 176.461 244.439 176.461H104.935C103.011 176.461 101.301 175.53 100.233 174.095C99.5091 173.119 99.0786 171.916 99.0786 170.609V82.6619C99.0786 82.4345 99.1531 82.2401 99.2773 82.0871C99.4015 81.9341 99.5711 81.8225 99.7574 81.7687L109.856 77.2983V50.1909H239.468V77.2735L249.654 81.777C250.01 81.8969 250.291 82.2236 250.291 82.6537H250.296Z" fill="black"/>
</g>
<path d="M92.332 81.7688L167.222 48.6113L242.274 81.7978L167.198 134.123L92.332 81.7688Z" fill="#97CEFF"/>
<path d="M232.043 18.0427V164.981H102.431V0H212.47L232.043 18.0427Z" fill="#F3F4F6"/>
<path opacity="0.3" d="M213.206 32.9344H121.267C119.107 32.9344 117.335 31.1686 117.335 29.0058C117.335 26.8471 119.103 25.0771 121.267 25.0771H213.206C215.367 25.0771 217.138 26.843 217.138 29.0058C217.138 31.1644 215.371 32.9344 213.206 32.9344Z" fill="#B1CFE6"/>
<path opacity="0.3" d="M213.206 48.6116H121.267C119.107 48.6116 117.335 46.8458 117.335 44.683C117.335 42.5243 119.103 40.7544 121.267 40.7544H213.206C215.367 40.7544 217.138 42.5202 217.138 44.683C217.138 46.8417 215.371 48.6116 213.206 48.6116Z" fill="#B1CFE6"/>
<path opacity="0.3" d="M213.206 64.2845H121.267C119.107 64.2845 117.335 62.5187 117.335 60.3559C117.335 58.1972 119.103 56.4272 121.267 56.4272H213.206C215.367 56.4272 217.138 58.1931 217.138 60.3559C217.138 62.5145 215.371 64.2845 213.206 64.2845Z" fill="#B1CFE6"/>
<path opacity="0.3" d="M213.206 79.9617H121.267C119.107 79.9617 117.335 78.1959 117.335 76.0331C117.335 73.8744 119.103 72.1045 121.267 72.1045H213.206C215.367 72.1045 217.138 73.8703 217.138 76.0331C217.138 78.1918 215.371 79.9617 213.206 79.9617Z" fill="#B1CFE6"/>
<path opacity="0.3" d="M213.206 95.6351H121.267C119.107 95.6351 117.335 93.8693 117.335 91.7064C117.335 89.5478 119.103 87.7778 121.267 87.7778H213.206C215.367 87.7778 217.138 89.5436 217.138 91.7064C217.138 93.8651 215.371 95.6351 213.206 95.6351Z" fill="#B1CFE6"/>
<path opacity="0.3" d="M213.206 111.308H121.267C119.107 111.308 117.335 109.542 117.335 107.379C117.335 105.221 119.103 103.451 121.267 103.451H213.206C215.367 103.451 217.138 105.216 217.138 107.379C217.138 109.538 215.371 111.308 213.206 111.308Z" fill="#B1CFE6"/>
<path opacity="0.3" d="M213.206 126.985H121.267C119.107 126.985 117.335 125.219 117.335 123.057C117.335 120.898 119.103 119.128 121.267 119.128H213.206C215.367 119.128 217.138 120.894 217.138 123.057C217.138 125.215 215.371 126.985 213.206 126.985Z" fill="#B1CFE6"/>
<path d="M212.474 0V18.1295H232.043L212.474 0Z" fill="#5596FE"/>
<path d="M242.866 82.6537V170.609C242.866 171.941 242.419 173.169 241.67 174.153C240.602 175.555 238.909 176.461 237.009 176.461H97.5099C95.5853 176.461 93.8759 175.53 92.804 174.095C92.0796 173.119 91.6533 171.916 91.6533 170.609V82.6619C91.6533 81.9341 92.4563 81.4916 93.073 81.8803L124.558 101.842L166.966 128.726L215.64 98.1076L241.442 81.8762C242.059 81.4875 242.862 81.93 242.862 82.6578L242.866 82.6537Z" fill="#374151"/>
<g opacity="0.15" style="mix-blend-mode:soft-light">
<path d="M241.67 174.153C240.602 175.555 238.913 176.461 237.009 176.461H97.5097C95.5851 176.461 93.8757 175.53 92.8037 174.095L166.966 128.718L241.67 174.149V174.153Z" fill="black"/>
</g>
<path d="M37.1886 228.182C27.2551 228.182 17.9176 224.315 10.8937 217.298C3.86993 210.28 0 200.95 0 191.026C0 181.101 3.86993 171.771 10.8937 164.753C17.9176 157.736 27.2551 153.869 37.1886 153.869C47.1221 153.869 56.4596 157.736 63.4834 164.753C70.5072 171.771 74.3771 181.101 74.3771 191.026C74.3771 200.95 70.5072 210.28 63.4834 217.298C56.4596 224.315 47.1221 228.182 37.1886 228.182Z" fill="#374151"/>
<path d="M71.4424 191.026C71.4424 209.929 56.1034 225.25 37.1842 225.25C27.1348 225.25 18.0995 220.929 11.8331 214.043C6.29929 207.964 2.93018 199.888 2.93018 191.026C2.93018 172.123 18.265 156.801 37.1842 156.801C52.4735 156.801 65.4243 166.809 69.8282 180.625C70.8754 183.905 71.4424 187.399 71.4424 191.026Z" fill="#5596FE"/>
<g opacity="0.5" style="mix-blend-mode:soft-light">
<path d="M21.6675 186.055L32.1804 208.378H38.9394L57.9869 174.174L50.0069 174.261L35.9386 199.333L30.3924 186.055H21.6675Z" fill="black"/>
</g>
<path d="M20.6987 185.153L31.2117 207.472H37.9706L57.0181 173.272L49.0341 173.359L34.9657 198.432L29.4195 185.153H20.6987Z" fill="#374151"/>
<g opacity="0.2" style="mix-blend-mode:soft-light">
<path d="M71.4428 191.026C71.4428 209.929 56.1038 225.25 37.1846 225.25C27.1352 225.25 18.0999 220.929 11.8335 214.043C16.4898 215.685 21.2869 216.938 26.2288 217.323C35.3635 218.042 45.1935 215.445 51.253 208.58C56.6046 202.518 58.3596 194.074 62.9828 187.44C64.8412 184.777 67.1755 182.482 69.8286 180.621C70.8758 183.9 71.4428 187.395 71.4428 191.022V191.026Z" fill="black"/>
</g>
<path d="M201.295 134.574C179.184 142.448 169.292 123.636 169.292 123.636C169.292 123.636 159.4 142.448 137.29 134.574C137.29 134.574 124.24 202.605 169.292 206.323C214.349 202.605 201.295 134.574 201.295 134.574Z" fill="black"/>
<path d="M197.321 134.574C175.211 142.448 165.318 123.636 165.318 123.636C165.318 123.636 155.426 142.448 133.316 134.574C133.316 134.574 120.266 202.605 165.318 206.323C210.375 202.605 197.321 134.574 197.321 134.574Z" fill="#F3F0FF"/>
<path d="M195.756 156.599C195.69 163.451 195.007 169.725 193.724 175.25C192.16 181.978 189.705 187.581 186.423 191.894C184.022 195.05 181.133 197.568 177.826 199.388C174.23 201.369 170.02 202.584 165.318 203.002C163.605 202.849 161.953 202.589 160.377 202.225C157.628 201.592 155.095 200.645 152.811 199.384C149.503 197.564 146.614 195.046 144.214 191.89C140.932 187.577 138.477 181.978 136.913 175.245C135.63 169.725 134.947 163.447 134.881 156.595C134.81 149.18 135.489 142.675 136.006 138.838C138.635 139.487 141.217 139.809 143.709 139.809C150.617 139.809 157.045 137.287 162.305 132.519C163.489 131.448 164.491 130.368 165.314 129.38C166.138 130.368 167.14 131.443 168.323 132.519C173.584 137.287 180.016 139.809 186.92 139.809C187.826 139.809 188.741 139.768 189.664 139.681C191.29 139.532 192.946 139.247 194.622 138.838C195.14 142.675 195.818 149.18 195.748 156.595L195.756 156.599Z" fill="#5596FE"/>
<g opacity="0.15" style="mix-blend-mode:soft-light">
<path d="M195.756 156.599C195.69 163.451 195.007 169.724 193.724 175.249C192.16 181.977 189.705 187.581 186.423 191.894C184.022 195.049 181.133 197.568 177.826 199.387C174.23 201.368 170.02 202.584 165.318 203.002C163.605 202.849 161.953 202.588 160.376 202.224C166.676 199.276 173.749 197.787 179.221 193.507C184.767 189.165 187.983 182.387 189.37 175.481C190.756 168.579 190.496 161.466 190.227 154.428C190.04 149.519 189.982 144.585 189.672 139.685C191.299 139.536 192.954 139.251 194.63 138.841C195.148 142.679 195.827 149.184 195.756 156.599Z" fill="black"/>
</g>
<g opacity="0.3" style="mix-blend-mode:soft-light">
<path d="M179.44 162.591H178.124V157.314C178.124 150.759 172.785 145.425 166.229 145.425C159.673 145.425 154.329 150.759 154.329 157.314V162.591H153.017C151.411 162.591 150.107 163.893 150.107 165.498V186.196C150.107 186.229 150.107 186.262 150.107 186.295C150.161 187.854 151.444 189.103 153.017 189.103H179.44C181.046 189.103 182.35 187.8 182.35 186.196V165.498C182.35 163.893 181.046 162.591 179.44 162.591ZM157.235 160.784V157.314C157.235 152.36 161.27 148.328 166.229 148.328C171.187 148.328 175.223 152.36 175.223 157.314V162.591H157.235V160.784Z" fill="black"/>
</g>
<path d="M165.314 143.94C158.754 143.94 153.415 149.275 153.415 155.83V167.719H177.209V155.83C177.209 149.275 171.87 143.94 165.314 143.94ZM174.308 164.816H156.32V155.83C156.32 150.875 160.356 146.843 165.314 146.843C170.273 146.843 174.308 150.875 174.308 155.83V164.816Z" fill="#F3F0FF"/>
<path d="M181.435 164.009V184.707C181.435 186.311 180.132 187.614 178.526 187.614H152.103C150.53 187.614 149.247 186.365 149.193 184.806C149.193 184.773 149.193 184.74 149.193 184.707V164.009C149.193 162.405 150.497 161.102 152.103 161.102H178.526C180.132 161.102 181.435 162.405 181.435 164.009Z" fill="#374151"/>
<path d="M169.366 171.904C169.366 169.671 167.553 167.855 165.314 167.855C163.075 167.855 161.262 169.667 161.262 171.904C161.262 173.277 161.945 174.489 162.992 175.221V179.472C162.992 180.745 164.035 181.792 165.314 181.792C166.589 181.792 167.636 180.75 167.636 179.472V175.221C168.683 174.489 169.366 173.277 169.366 171.904Z" fill="#C4E0F9"/>
<g opacity="0.3" style="mix-blend-mode:soft-light">
<path d="M181.435 168.058V184.707C181.435 186.312 180.132 187.614 178.526 187.614H152.103C150.53 187.614 149.247 186.365 149.193 184.806C152.247 184.62 155.484 185.15 158.53 185.15C161.378 185.208 164.317 185.228 166.949 184.149C171.688 182.205 174.316 177.272 177.135 172.996C178.327 171.189 179.738 169.369 181.44 168.058H181.435Z" fill="black"/>
</g>
<g opacity="0.8" style="mix-blend-mode:soft-light">
<path d="M156.324 159.295H153.419V161.102H156.324V159.295Z" fill="black"/>
</g>
<g opacity="0.8" style="mix-blend-mode:soft-light">
<path d="M177.21 159.295H174.308V161.102H177.21V159.295Z" fill="black"/>
</g>
<path d="M254.919 205.752C248.18 205.752 242.696 200.272 242.696 193.54C242.696 186.808 248.18 181.328 254.919 181.328H353.782C360.52 181.328 366.004 186.808 366.004 193.54C366.004 200.272 360.52 205.752 353.782 205.752H254.919Z" fill="#374151"/>
<path d="M353.778 183.04H254.919C249.113 183.04 244.406 187.743 244.406 193.544C244.406 199.345 249.113 204.048 254.919 204.048H353.778C359.584 204.048 364.291 199.345 364.291 193.544C364.291 187.743 359.584 183.04 353.778 183.04Z" fill="#5596FE"/>
<path d="M267.63 187.101H267.609C267.161 187.101 266.798 187.464 266.798 187.912V199.176C266.798 199.624 267.161 199.987 267.609 199.987H267.63C268.078 199.987 268.441 199.624 268.441 199.176V187.912C268.441 187.464 268.078 187.101 267.63 187.101Z" fill="#374151"/>
<path d="M262.266 197.133L262.257 197.121C262.009 196.749 262.108 196.244 262.481 195.996L271.847 189.727C272.22 189.479 272.725 189.578 272.973 189.95L272.981 189.963C273.23 190.335 273.13 190.839 272.758 191.087L263.391 197.357C263.019 197.605 262.514 197.506 262.266 197.133Z" fill="#374151"/>
<path d="M272.849 197.311L272.841 197.324C272.58 197.684 272.067 197.766 271.707 197.506L262.576 190.901C262.216 190.641 262.133 190.128 262.394 189.768L262.402 189.756C262.663 189.396 263.176 189.313 263.536 189.574L272.667 196.178C273.027 196.439 273.11 196.952 272.849 197.311Z" fill="#374151"/>
<path d="M282.323 187.101H282.302C281.854 187.101 281.491 187.464 281.491 187.912V199.176C281.491 199.624 281.854 199.987 282.302 199.987H282.323C282.771 199.987 283.134 199.624 283.134 199.176V187.912C283.134 187.464 282.771 187.101 282.323 187.101Z" fill="#374151"/>
<path d="M276.959 197.133L276.951 197.121C276.702 196.749 276.802 196.244 277.174 195.996L286.541 189.727C286.913 189.479 287.418 189.578 287.666 189.95L287.675 189.963C287.923 190.335 287.824 190.839 287.451 191.087L278.085 197.357C277.712 197.605 277.207 197.506 276.959 197.133Z" fill="#374151"/>
<path d="M287.538 197.311L287.53 197.324C287.269 197.684 286.756 197.766 286.396 197.506L277.265 190.901C276.905 190.641 276.822 190.128 277.083 189.768L277.091 189.756C277.352 189.396 277.865 189.313 278.225 189.574L287.356 196.178C287.716 196.439 287.799 196.952 287.538 197.311Z" fill="#374151"/>
<path d="M297.012 187.101H296.991C296.543 187.101 296.18 187.464 296.18 187.912V199.176C296.18 199.624 296.543 199.987 296.991 199.987H297.012C297.46 199.987 297.823 199.624 297.823 199.176V187.912C297.823 187.464 297.46 187.101 297.012 187.101Z" fill="#374151"/>
<path d="M291.648 197.133L291.64 197.121C291.391 196.749 291.491 196.244 291.863 195.996L301.23 189.727C301.602 189.479 302.107 189.578 302.355 189.95L302.364 189.963C302.612 190.335 302.513 190.839 302.14 191.087L292.774 197.357C292.401 197.605 291.896 197.506 291.648 197.133Z" fill="#374151"/>
<path d="M302.231 197.311L302.223 197.324C301.962 197.684 301.449 197.766 301.089 197.506L291.958 190.901C291.598 190.641 291.516 190.128 291.776 189.768L291.785 189.756C292.045 189.396 292.559 189.313 292.919 189.574L302.049 196.178C302.409 196.439 302.492 196.952 302.231 197.311Z" fill="#374151"/>
<path d="M311.705 187.101H311.685C311.237 187.101 310.874 187.464 310.874 187.912V199.176C310.874 199.624 311.237 199.987 311.685 199.987H311.705C312.153 199.987 312.517 199.624 312.517 199.176V187.912C312.517 187.464 312.153 187.101 311.705 187.101Z" fill="#374151"/>
<path d="M306.341 197.133L306.333 197.121C306.085 196.749 306.184 196.244 306.556 195.996L315.923 189.727C316.295 189.479 316.8 189.578 317.049 189.95L317.057 189.963C317.305 190.335 317.206 190.839 316.833 191.087L307.467 197.357C307.094 197.605 306.59 197.506 306.341 197.133Z" fill="#374151"/>
<path d="M316.925 197.311L316.916 197.324C316.656 197.684 316.142 197.766 315.782 197.506L306.652 190.901C306.292 190.641 306.209 190.128 306.47 189.768L306.478 189.756C306.739 189.396 307.252 189.313 307.612 189.574L316.743 196.178C317.103 196.439 317.185 196.952 316.925 197.311Z" fill="#374151"/>
<path d="M326.399 187.101H326.378C325.93 187.101 325.567 187.464 325.567 187.912V199.176C325.567 199.624 325.93 199.987 326.378 199.987H326.399C326.847 199.987 327.21 199.624 327.21 199.176V187.912C327.21 187.464 326.847 187.101 326.399 187.101Z" fill="#374151"/>
<path d="M321.035 197.133L321.026 197.121C320.778 196.749 320.877 196.244 321.25 195.996L330.616 189.727C330.989 189.479 331.494 189.578 331.742 189.95L331.75 189.963C331.999 190.335 331.899 190.839 331.527 191.087L322.16 197.357C321.788 197.605 321.283 197.506 321.035 197.133Z" fill="#374151"/>
<path d="M331.614 197.311L331.605 197.324C331.345 197.684 330.831 197.766 330.471 197.506L321.341 190.901C320.981 190.641 320.898 190.128 321.159 189.768L321.167 189.756C321.428 189.396 321.941 189.313 322.301 189.574L331.432 196.178C331.792 196.439 331.874 196.952 331.614 197.311Z" fill="#374151"/>
<path d="M341.088 187.101H341.067C340.619 187.101 340.256 187.464 340.256 187.912V199.176C340.256 199.624 340.619 199.987 341.067 199.987H341.088C341.536 199.987 341.899 199.624 341.899 199.176V187.912C341.899 187.464 341.536 187.101 341.088 187.101Z" fill="#374151"/>
<path d="M335.937 195.972L345.306 189.713C345.677 189.465 346.183 189.565 346.431 189.936L346.44 189.95C346.689 190.321 346.589 190.826 346.217 191.074L336.848 197.334C336.477 197.582 335.971 197.482 335.723 197.11L335.714 197.097C335.465 196.725 335.565 196.221 335.937 195.972Z" fill="#374151"/>
<path d="M346.307 197.311L346.299 197.324C346.038 197.684 345.525 197.766 345.165 197.506L336.034 190.901C335.674 190.641 335.591 190.128 335.852 189.768L335.86 189.756C336.121 189.396 336.634 189.313 336.994 189.574L346.125 196.178C346.485 196.439 346.568 196.952 346.307 197.311Z" fill="#374151"/>
</g>
<defs>
<clipPath id="clip0_103_885">
<rect width="366" height="282" fill="white"/>
</clipPath>
</defs>
</svg>
