<svg width="267" height="205" viewBox="0 0 267 205" fill="none" xmlns="http://www.w3.org/2000/svg">
<g clip-path="url(#clip0_103_1506)">
<path d="M266.412 43.4919L246.51 72.4039C245.465 73.9246 243.378 74.3097 241.853 73.2681L185.91 35.0045C184.384 33.9629 183.998 31.8829 185.043 30.3623L204.945 1.45025C205.99 -0.0703729 208.077 -0.455554 209.602 0.586109L265.545 38.8496C267.071 39.8913 267.46 41.9713 266.412 43.4919Z" fill="#374151"/>
<path d="M263.559 47.6329L202.093 5.58618L197.908 11.6646L259.375 53.7113L263.559 47.6329Z" fill="#374151"/>
<path d="M212.361 23.9167L202.415 17.113C201.717 16.6357 200.763 16.8126 200.284 17.5081L193.459 27.4224C192.98 28.1179 193.157 29.0687 193.855 29.5459L203.801 36.3497C204.499 36.827 205.453 36.6501 205.932 35.9546L212.757 26.0403C213.236 25.3448 213.059 24.394 212.361 23.9167Z" fill="#97CEFF"/>
<path opacity="0.5" d="M205.788 43.5355L191.051 33.4538C190.399 33.0084 190.231 32.1141 190.678 31.4643C191.124 30.8145 192.022 30.647 192.673 31.0925L207.411 41.1742C208.063 41.6197 208.231 42.5139 207.784 43.1637C207.337 43.8135 206.44 43.981 205.788 43.5355Z" fill="#F3F0FF"/>
<path opacity="0.5" d="M224.202 56.1293L209.464 46.0476C208.812 45.6021 208.644 44.7078 209.091 44.058C209.538 43.4082 210.435 43.2408 211.087 43.6862L225.825 53.7679C226.476 54.2134 226.644 55.1077 226.198 55.7575C225.751 56.4073 224.854 56.5747 224.202 56.1293Z" fill="#F3F0FF"/>
<path opacity="0.5" d="M242.104 68.3746L227.367 58.2929C226.715 57.8475 226.547 56.9532 226.994 56.3034C227.441 55.6536 228.338 55.4861 228.99 55.9316L243.727 66.0133C244.379 66.4588 244.547 67.3531 244.1 68.0028C243.654 68.6526 242.756 68.8201 242.104 68.3746Z" fill="#F3F0FF"/>
<g opacity="0.15" style="mix-blend-mode:soft-light">
<path d="M254.329 61.0462L246.51 72.4074C245.465 73.928 243.378 74.3132 241.853 73.2715L185.91 35.008C184.384 33.9663 183.998 31.8864 185.043 30.3657L185.896 29.1265C189.757 32.1443 193.483 35.3463 197.368 38.3373C200.221 40.5312 203.107 42.6915 206.155 44.6074C220.576 53.6776 237.787 56.8896 254.332 61.0462H254.329Z" fill="black"/>
</g>
<path opacity="0.5" d="M223.412 16.4789L209.165 6.73552C208.829 6.50776 208.745 6.04554 208.974 5.71395C209.202 5.37901 209.666 5.29527 209.998 5.52303L224.245 15.2664C224.581 15.4942 224.665 15.9564 224.437 16.288C224.209 16.6229 223.745 16.7067 223.412 16.4789Z" fill="#F3F0FF"/>
<path d="M72.6024 25.6733C72.9317 14.0944 63.987 4.44477 52.6264 4.12323C41.2624 3.80169 31.7834 12.9288 31.4541 24.5077C31.1248 36.0866 40.0695 45.7362 51.4301 46.0577C62.7941 46.3793 72.2731 37.2521 72.6024 25.6733ZM36.5044 24.6517C36.7531 15.9299 43.9202 9.0301 52.4785 9.27126C61.0368 9.51242 67.8007 16.8074 67.5521 25.5292C67.3034 34.2511 60.1363 41.1508 51.578 40.9097C43.0197 40.6685 36.2558 33.3735 36.5044 24.6517Z" fill="#374151"/>
<path d="M71.0806 29.6892L71.3124 21.5769L76.0536 22.143L75.8486 29.3944L71.0806 29.6892Z" fill="#374151"/>
<path d="M70.7548 19.5004L66.9746 12.3628L71.3596 10.4336L74.7399 16.8175L70.7548 19.5004Z" fill="#374151"/>
<path d="M65.4722 10.8456L58.6948 6.59517L61.5476 2.69312L67.6093 6.49468L65.4722 10.8456Z" fill="#374151"/>
<path d="M56.6486 6.04912L48.6885 5.82471L49.2463 0.994873L56.3664 1.19584L56.6486 6.04912Z" fill="#374151"/>
<path d="M46.6458 6.39736L39.6399 10.2559L37.7515 5.79112L44.0215 2.33789L46.6458 6.39736Z" fill="#374151"/>
<path d="M38.1513 11.79L33.9712 18.7032L30.144 15.7993L33.8805 9.61963L38.1513 11.79Z" fill="#374151"/>
<path d="M33.4335 20.7898L33.2016 28.902L28.4604 28.336L28.6688 21.0845L33.4335 20.7898Z" fill="#374151"/>
<path d="M33.7595 30.9788L37.5397 38.1163L33.1547 40.0456L29.7744 33.6616L33.7595 30.9788Z" fill="#374151"/>
<path d="M39.0413 39.6335L45.8187 43.8839L42.966 47.786L36.9043 43.9844L39.0413 39.6335Z" fill="#374151"/>
<path d="M47.8652 44.4265L55.8254 44.6543L55.2676 49.4841L48.1508 49.2831L47.8652 44.4265Z" fill="#374151"/>
<path d="M57.8682 44.0817L64.8774 40.2231L66.7625 44.6879L60.4958 48.1411L57.8682 44.0817Z" fill="#374151"/>
<path d="M66.3662 38.689L70.5462 31.7759L74.3701 34.6798L70.6336 40.8594L66.3662 38.689Z" fill="#374151"/>
<path d="M33.0608 57.6835C33.2859 49.7889 27.1873 43.2107 19.4422 42.993C11.6971 42.772 5.23214 48.9951 5.00701 56.8897C4.78188 64.7842 10.8805 71.3624 18.6257 71.5801C26.3708 71.8012 32.8357 65.578 33.0608 57.6835ZM8.45116 56.9868C8.61916 51.0416 13.5048 46.3357 19.3414 46.5032C25.1779 46.6673 29.7847 51.6412 29.6167 57.5863C29.4487 63.5315 24.563 68.2374 18.7265 68.07C12.8899 67.9058 8.28315 62.932 8.45116 56.9868Z" fill="#374151"/>
<path d="M32.0225 60.42L32.1804 54.8901L35.4128 55.2753L35.2717 60.2224L32.0225 60.42Z" fill="#374151"/>
<path d="M31.8009 53.4731L29.2236 48.6098L32.2142 47.2935L34.5192 51.6443L31.8009 53.4731Z" fill="#374151"/>
<path d="M28.1988 47.575L23.5786 44.6777L25.5241 42.0183L29.6571 44.6074L28.1988 47.575Z" fill="#374151"/>
<path d="M22.1839 44.3059L16.7573 44.1518L17.137 40.8594L21.9924 40.9967L22.1839 44.3059Z" fill="#374151"/>
<path d="M15.3663 44.5404L10.5882 47.173L9.30127 44.1284L13.5754 41.7771L15.3663 44.5404Z" fill="#374151"/>
<path d="M9.57308 48.218L6.72368 52.9306L4.11621 50.9511L6.6632 46.7375L9.57308 48.218Z" fill="#374151"/>
<path d="M6.35767 54.354L6.19974 59.8839L2.96729 59.4987L3.10841 54.555L6.35767 54.354Z" fill="#374151"/>
<path d="M6.57925 61.3008L9.15648 66.1675L6.16595 67.4804L3.86426 63.1296L6.57925 61.3008Z" fill="#374151"/>
<path d="M10.1814 67.199L14.8016 70.0962L12.8561 72.759L8.72314 70.1665L10.1814 67.199Z" fill="#374151"/>
<path d="M16.1963 70.468L21.6229 70.6221L21.2432 73.9179L16.3912 73.7806L16.1963 70.468Z" fill="#374151"/>
<path d="M23.0137 70.2337L27.7918 67.6011L29.0787 70.6457L24.8046 73.0003L23.0137 70.2337Z" fill="#374151"/>
<path d="M28.8066 66.5559L31.656 61.8433L34.2669 63.8228L31.7165 68.0363L28.8066 66.5559Z" fill="#374151"/>
<path d="M151.613 201.48H106.194C107.877 199.822 109.302 197.169 110.502 194.004C112.84 187.845 114.332 179.739 115.239 173.177C116.143 166.643 116.466 161.646 116.466 161.646H141.331C141.331 161.646 143.387 193.374 151.606 201.48H151.613Z" fill="#5596FE"/>
<g opacity="0.15" style="mix-blend-mode:soft-light">
<path d="M151.613 201.48H106.194C107.877 199.822 109.302 197.169 110.502 194.004C118.173 194.232 125.844 194.46 133.515 194.684C136.287 194.768 139.691 194.49 140.87 191.981C141.368 190.923 141.317 189.697 141.2 188.538C140.907 185.691 140.272 182.874 139.308 180.178C138.532 178.007 137.42 175.777 135.407 174.648C133.418 173.533 130.988 173.727 128.71 173.844C125.001 174.035 121.264 173.968 117.568 173.579C116.714 173.492 115.938 173.365 115.239 173.181C116.143 166.646 116.466 161.649 116.466 161.649H141.331C141.331 161.649 143.387 193.378 151.606 201.483L151.613 201.48Z" fill="black"/>
</g>
<path d="M215.748 42.6045H42.0588C36.549 42.6045 32.0825 47.0567 32.0825 52.5489V161.555C32.0825 167.047 36.549 171.499 42.0588 171.499H215.748C221.257 171.499 225.724 167.047 225.724 161.555V52.5489C225.724 47.0567 221.257 42.6045 215.748 42.6045Z" fill="#5596FE"/>
<path d="M217.915 50.0201V164.084C217.915 164.221 217.804 164.332 217.67 164.332H40.1403C40.0059 164.332 39.895 164.221 39.895 164.084V50.0201C39.895 49.8827 40.0059 49.7722 40.1403 49.7722H217.67C217.804 49.7722 217.915 49.8827 217.915 50.0201Z" fill="#C8DDEF"/>
<path d="M161.972 205H95.8413C95.8413 201.111 99.0066 197.956 102.908 197.956H154.906C158.807 197.956 161.972 201.111 161.972 205Z" fill="#5596FE"/>
<path d="M178.007 40.548C141.892 53.3795 125.733 22.7258 125.733 22.7258C125.733 22.7258 109.574 53.3795 73.4595 40.548C73.4595 40.548 52.1394 151.41 125.733 157.469C199.327 151.41 178.007 40.548 178.007 40.548Z" fill="#97CEFF"/>
<path d="M175.453 76.4368C175.346 87.6037 174.23 97.8294 172.134 106.829C169.58 117.799 165.568 126.922 160.205 133.953C156.287 139.094 151.563 143.2 146.163 146.165C140.289 149.39 133.415 151.37 125.73 152.056C122.928 151.805 120.236 151.383 117.659 150.793C113.166 149.762 109.03 148.218 105.297 146.168C99.8973 143.207 95.1729 139.097 91.255 133.956C85.8956 126.929 81.8802 117.802 79.3265 106.833C77.2298 97.8328 76.1142 87.607 76.0067 76.4402C75.8891 64.3555 76.9979 53.7547 77.848 47.498C82.1423 48.553 86.3559 49.0856 90.4318 49.0856C101.712 49.0856 112.216 44.9759 120.811 37.2019C122.746 35.4535 124.379 33.6985 125.73 32.0874C127.077 33.6951 128.714 35.4535 130.646 37.2019C139.238 44.9725 149.742 49.0823 161.025 49.0823H161.028C162.507 49.0823 164.002 49.0119 165.511 48.8712C168.169 48.6267 170.873 48.1679 173.612 47.4946C174.462 53.748 175.568 64.3522 175.453 76.4368Z" fill="#5596FE"/>
<g opacity="0.15" style="mix-blend-mode:soft-light">
<path d="M175.453 76.4369C175.346 87.6038 174.23 97.8295 172.133 106.829C169.58 117.799 165.568 126.922 160.205 133.953C156.287 139.094 151.562 143.201 146.163 146.165C140.289 149.39 133.414 151.37 125.73 152.056C122.927 151.805 120.236 151.383 117.659 150.794C127.951 145.991 139.503 143.562 148.438 136.585C157.5 129.508 162.748 118.462 165.016 107.211C167.281 95.9606 166.854 84.3683 166.414 72.9033C166.109 64.9049 166.018 56.8664 165.51 48.8781C168.168 48.6336 170.873 48.1747 173.612 47.5015C174.462 53.7548 175.567 64.359 175.453 76.4436V76.4369Z" fill="black"/>
</g>
<g opacity="0.3" style="mix-blend-mode:soft-light">
<path d="M148.801 86.2037H146.654V77.6058C146.654 66.9246 137.934 58.2329 127.222 58.2329C116.51 58.2329 107.787 66.9246 107.787 77.6058V86.2037H105.64C103.012 86.2037 100.885 88.3239 100.885 90.9431V124.675C100.885 124.729 100.885 124.785 100.885 124.839C100.973 127.381 103.066 129.414 105.636 129.414H148.797C151.422 129.414 153.552 127.294 153.552 124.675V90.9431C153.552 88.3273 151.425 86.2037 148.797 86.2037H148.801ZM112.528 83.263V77.6092C112.528 69.5338 119.117 62.9656 127.219 62.9656C135.32 62.9656 141.909 69.5338 141.909 77.6092V86.2071H112.528V83.2663V83.263Z" fill="black"/>
</g>
<path d="M125.733 55.8079C115.018 55.8079 106.298 64.4996 106.298 75.1808V94.5537H145.165V75.1808C145.165 64.4996 136.446 55.8079 125.733 55.8079ZM140.424 89.8244H111.043V75.1808C111.043 67.1054 117.632 60.5372 125.733 60.5372C133.835 60.5372 140.424 67.1054 140.424 75.1808V89.8244Z" fill="#F3F0FF"/>
<path d="M152.067 88.5148V122.247C152.067 124.862 149.94 126.986 147.312 126.986H104.151C101.581 126.986 99.4873 124.953 99.3999 122.411C99.3999 122.357 99.3999 122.304 99.3999 122.247V88.5148C99.3999 85.8989 101.53 83.7754 104.154 83.7754H147.315C149.94 83.7754 152.07 85.8989 152.07 88.5148H152.067Z" fill="#97CEFF"/>
<path d="M132.349 101.38C132.349 97.7391 129.386 94.7849 125.733 94.7849C122.081 94.7849 119.117 97.7391 119.117 101.38C119.117 103.617 120.236 105.59 121.943 106.782V113.709C121.943 115.786 123.65 117.487 125.733 117.487C127.817 117.487 129.524 115.786 129.524 113.709V106.782C131.23 105.59 132.349 103.614 132.349 101.38Z" fill="#374151"/>
<g opacity="0.3" style="mix-blend-mode:soft-light">
<path d="M152.067 95.113V122.243C152.067 124.859 149.94 126.983 147.312 126.983H104.151C101.581 126.983 99.4873 124.949 99.3999 122.407C104.393 122.102 109.675 122.963 114.648 122.963C119.299 123.057 124.097 123.091 128.401 121.332C136.143 118.167 140.434 110.125 145.037 103.158C146.983 100.214 149.291 97.25 152.067 95.113Z" fill="black"/>
</g>
<g opacity="0.8" style="mix-blend-mode:soft-light">
<path d="M111.043 80.8345H106.298V83.7752H111.043V80.8345Z" fill="black"/>
</g>
<g opacity="0.8" style="mix-blend-mode:soft-light">
<path d="M145.165 80.8345H140.424V83.7752H145.165V80.8345Z" fill="black"/>
</g>
<path d="M188.642 139.71L247.105 156.575C248.138 156.873 248.737 157.953 248.438 158.985L236.642 199.615L176.303 182.209L188.641 139.714L188.642 139.71Z" fill="#9CA3AF"/>
<path d="M192.245 134.297L205.804 138.208C208.78 139.067 210.498 142.174 209.637 145.14L209.468 145.723L188.643 139.715L189.83 135.626C190.129 134.596 191.212 133.999 192.248 134.298L192.245 134.297Z" fill="#9CA3AF"/>
<path d="M246.313 158.513L189.589 142.15L183.055 164.659L239.778 181.022L246.313 158.513Z" fill="#F3F1FF"/>
<path d="M247.156 152.762L192.191 136.907L185.657 159.416L240.621 175.271L247.156 152.762Z" fill="#EAE8F9"/>
<path d="M249.45 139.332L201.581 125.525L196.686 128.215L187.875 158.571L239.538 173.472L249.45 139.332Z" fill="#F3F1FF"/>
<path d="M196.686 128.215L200.795 129.401L201.581 125.525L196.686 128.215Z" fill="#5596FE"/>
<path opacity="0.3" d="M242.316 146.811L201 134.894C200.483 134.743 200.18 134.197 200.328 133.681C200.479 133.165 201.027 132.864 201.544 133.011L242.861 144.928C243.378 145.079 243.681 145.625 243.533 146.141C243.382 146.657 242.834 146.958 242.316 146.811Z" fill="#CEDDEF"/>
<path opacity="0.3" d="M241.1 151.008L199.784 139.09C199.266 138.94 198.964 138.394 199.112 137.878C199.263 137.362 199.811 137.061 200.328 137.208L241.644 149.125C242.162 149.276 242.464 149.822 242.316 150.338C242.165 150.854 241.618 151.155 241.1 151.008Z" fill="#CEDDEF"/>
<path opacity="0.3" d="M239.88 155.204L198.564 143.287C198.047 143.136 197.744 142.591 197.892 142.075C198.043 141.559 198.591 141.257 199.108 141.405L240.425 153.322C240.942 153.473 241.245 154.019 241.097 154.534C240.945 155.05 240.398 155.352 239.88 155.204Z" fill="#CEDDEF"/>
<path opacity="0.3" d="M238.664 159.398L197.348 147.481C196.83 147.33 196.528 146.784 196.676 146.268C196.827 145.753 197.375 145.451 197.892 145.598L239.208 157.516C239.726 157.666 240.028 158.212 239.88 158.728C239.729 159.244 239.181 159.545 238.664 159.398Z" fill="#CEDDEF"/>
<path opacity="0.3" d="M237.444 163.595L196.128 151.678C195.611 151.527 195.308 150.981 195.456 150.465C195.607 149.949 196.155 149.648 196.672 149.795L237.989 161.712C238.506 161.863 238.809 162.409 238.661 162.925C238.509 163.441 237.962 163.742 237.444 163.595Z" fill="#CEDDEF"/>
<path opacity="0.3" d="M236.228 167.788L194.912 155.871C194.394 155.72 194.092 155.174 194.24 154.658C194.391 154.143 194.939 153.841 195.456 153.989L236.772 165.906C237.29 166.056 237.592 166.602 237.444 167.118C237.293 167.634 236.745 167.935 236.228 167.788Z" fill="#CEDDEF"/>
<path d="M248.278 168.729L244.279 180.003L237.014 200.478C236.672 201.45 235.627 201.986 234.632 201.698L176.871 185.038C175.883 184.753 175.289 183.751 175.507 182.75L176.303 179.133L181.885 153.825C182.123 152.743 183.219 152.08 184.29 152.361L212.153 159.733C212.68 157.914 214.585 156.869 216.41 157.395L246.974 166.211C248.052 166.522 248.644 167.671 248.271 168.726L248.278 168.729Z" fill="#374151"/>
<g opacity="0.15" style="mix-blend-mode:soft-light">
<path d="M244.279 180.003L237.014 200.478C236.672 201.45 235.627 201.986 234.632 201.697L176.871 185.038C175.883 184.753 175.289 183.751 175.507 182.75L176.303 179.133C176.885 179.39 177.459 179.662 178.037 179.91C186.767 183.631 195.927 186.354 205.274 188.012C212.005 189.208 219.054 189.831 225.583 187.804C232.018 185.811 237.875 181.296 244.276 180L244.279 180.003Z" fill="black"/>
</g>
<path d="M7.56379 156.96L15.2182 168.351C15.944 169.433 15.655 170.897 14.5697 171.62C13.4844 172.343 12.0193 172.055 11.2902 170.974L3.63579 159.582C2.91 158.5 3.19897 157.037 4.28429 156.313C5.36962 155.59 6.838 155.878 7.56379 156.96Z" fill="#374151"/>
<path d="M18.286 149.799L25.9404 161.19C26.6661 162.272 26.3772 163.735 25.2918 164.459C24.2065 165.182 22.7381 164.894 22.0124 163.812L14.358 152.421C13.6322 151.339 13.9211 149.876 15.0065 149.152C16.0918 148.429 17.5602 148.717 18.286 149.799Z" fill="#374151"/>
<path d="M12.4056 152.793L18.6722 162.118C19.398 163.199 19.1091 164.663 18.0237 165.387C16.9384 166.11 15.47 165.822 14.7442 164.74L8.47758 155.415C7.75179 154.334 8.04076 152.87 9.12609 152.146C10.2114 151.423 11.6798 151.711 12.4056 152.793Z" fill="#374151"/>
<g opacity="0.3" style="mix-blend-mode:soft-light">
<path d="M7.56379 156.96L9.41859 159.723C8.09133 160.567 6.75063 161.398 5.44354 162.272L3.63579 159.582C2.91 158.5 3.19897 157.037 4.28429 156.313C5.36962 155.59 6.838 155.878 7.56379 156.96Z" fill="black"/>
</g>
<g opacity="0.3" style="mix-blend-mode:soft-light">
<path d="M12.4056 152.793L14.761 156.3C13.4338 157.151 12.1099 157.998 10.7826 158.849L8.47758 155.419C7.75179 154.337 8.04076 152.873 9.12609 152.15C10.2114 151.426 11.6798 151.714 12.4056 152.796V152.793Z" fill="black"/>
</g>
<g opacity="0.3" style="mix-blend-mode:soft-light">
<path d="M18.286 149.799L20.003 152.354C18.9849 153.543 17.6374 154.454 16.3001 155.312L14.358 152.421C13.6322 151.339 13.9211 149.876 15.0065 149.152C16.0918 148.429 17.5602 148.717 18.286 149.799Z" fill="black"/>
</g>
<path d="M51.7261 126.54C52.4519 127.622 52.1629 129.083 51.0776 129.809L3.67944 161.458C2.59412 162.181 1.12574 161.893 0.399946 160.811C-0.325845 159.73 -0.0368726 158.266 1.04845 157.542L48.4466 125.891C49.5319 125.167 51.0003 125.455 51.7261 126.537V126.54Z" fill="#374151"/>
<g opacity="0.5" style="mix-blend-mode:soft-light">
<path d="M51.726 126.54C52.4518 127.622 52.1628 129.082 51.0775 129.809L46.9982 132.532C46.9579 132.452 46.921 132.375 46.8806 132.294C46.343 131.209 45.5803 129.736 44.9956 128.198L48.4465 125.894C49.5318 125.17 51.0002 125.458 51.726 126.54Z" fill="black"/>
</g>
<path d="M64.562 116.214C62.7508 113.903 60.3987 112.185 57.835 111.324C54.7033 110.272 51.6288 110.591 49.1759 112.228C46.723 113.866 45.258 116.576 45.0429 119.865C44.8447 122.92 45.7721 126.145 47.6537 128.945C49.5354 131.745 52.1765 133.829 55.0864 134.807C55.4056 134.914 55.7248 135.008 56.044 135.085C58.8396 135.778 61.5412 135.369 63.7421 133.899C66.195 132.261 67.6634 129.548 67.8751 126.262C68.0733 123.208 67.1459 119.982 65.2642 117.182C65.0391 116.847 64.8039 116.522 64.5586 116.211L64.562 116.214ZM49.7605 120.17C49.8781 118.375 50.6039 116.944 51.8069 116.144C53.0098 115.34 54.6159 115.213 56.3229 115.789C58.2516 116.439 60.0325 117.865 61.3396 119.808C62.6467 121.751 63.2918 123.935 63.1608 125.961C63.0432 127.756 62.3174 129.186 61.1111 129.99C59.9082 130.794 58.3054 130.921 56.5951 130.345C54.6663 129.695 52.8855 128.269 51.5784 126.326C50.2713 124.383 49.6261 122.196 49.7572 120.173L49.7605 120.17Z" fill="#374151"/>
<g opacity="0.5" style="mix-blend-mode:soft-light">
<path d="M65.2676 117.186C67.1493 119.986 68.0767 123.211 67.8784 126.266C67.6634 129.551 66.195 132.264 63.7454 133.902C61.5446 135.373 58.8396 135.781 56.0474 135.088C59.9048 133.879 63.2851 131.122 65.1164 127.518C65.6506 126.47 66.0639 125.331 66.0841 124.156C66.1311 121.56 64.2864 119.165 64.5183 116.579C64.5284 116.455 64.5452 116.335 64.5653 116.218C64.8106 116.529 65.0458 116.854 65.2709 117.189L65.2676 117.186Z" fill="black"/>
</g>
</g>
<defs>
<clipPath id="clip0_103_1506">
<rect width="267" height="205" fill="white"/>
</clipPath>
</defs>
</svg>
