<svg width="370" height="269" viewBox="0 0 370 269" fill="none" xmlns="http://www.w3.org/2000/svg">
<g clip-path="url(#clip0_7_1518)">
<path d="M196.1 6.62716C184.26 -1.26124 166.322 -1.69785 153.92 2.78655C131.72 10.8082 134.68 28.6866 115.44 41.2666C96.2 53.8465 77.7 49.4066 59.2 65.7309C40.7 82.0554 39.0276 112.95 46.62 127.403C54.2124 141.855 62.9 152.459 55.5 177.33C48.1 202.202 48.84 231.091 78.44 246.298C108.04 261.505 130.98 229.086 150.22 235.753C169.46 242.421 205.72 271.939 245.68 263.133C285.64 254.327 267.88 224.032 293.78 215.411C319.68 206.79 334.48 177.027 325.6 145.599C316.72 114.171 294.52 108.126 299.7 88.3602C303.607 73.4343 308.846 59.0709 298.886 44.7001C286.032 26.1558 264.032 18.2008 242.72 20.0804C234.78 20.8204 225.7 21.0646 217.405 19.1406C207.977 16.9354 203.618 11.6444 196.1 6.62716Z" fill="#5596FE"/>
<path opacity="0.7" d="M196.1 6.62716C184.26 -1.26124 166.322 -1.69785 153.92 2.78655C131.72 10.8082 134.68 28.6866 115.44 41.2666C96.2 53.8465 77.7 49.4066 59.2 65.7309C40.7 82.0554 39.0276 112.95 46.62 127.403C54.2124 141.855 62.9 152.459 55.5 177.33C48.1 202.202 48.84 231.091 78.44 246.298C108.04 261.505 130.98 229.086 150.22 235.753C169.46 242.421 205.72 271.939 245.68 263.133C285.64 254.327 267.88 224.032 293.78 215.411C319.68 206.79 334.48 177.027 325.6 145.599C316.72 114.171 294.52 108.126 299.7 88.3602C303.607 73.4343 308.846 59.0709 298.886 44.7001C286.032 26.1558 264.032 18.2008 242.72 20.0804C234.78 20.8204 225.7 21.0646 217.405 19.1406C207.977 16.9354 203.618 11.6444 196.1 6.62716Z" fill="white"/>
<path d="M310.571 116.791L186.125 146.265L186.006 146.184L299.411 89.6478C299.5 89.2186 299.582 88.7894 299.7 88.3454C301.513 81.4116 303.615 74.5962 304.347 67.8474L186.073 145.614H185.94L290.628 35.2652C286.012 31.0873 280.749 27.686 275.043 25.1938L185.807 145.022H185.666L239.901 20.2802C234.154 20.7609 228.374 20.6766 222.644 20.0286L185.355 144.556L185.222 144.622L193.754 5.19899C188.374 2.34906 182.464 0.636237 176.394 0.166992L184.763 144.275L184.667 144.378L144.241 7.89999C138.528 12.1698 135.309 17.52 131.868 23.0404L184.119 144.215L184.06 144.341L110.06 44.3598C105.092 46.8015 99.8844 48.721 94.5202 50.0874L183.52 144.371V144.519L61.5236 63.7922C60.7836 64.4064 59.977 65.0428 59.2 65.7236C55.3494 69.1618 52.1157 73.2339 49.6392 77.7634L182.95 144.741L182.995 144.874L42.5278 111.152C42.9644 117.464 44.4 123.14 46.62 127.395C46.99 128.135 47.36 128.801 47.7374 129.489L182.573 145.266L182.654 145.385L58.3342 159.548C58.3116 165.061 57.5068 170.542 55.944 175.828L182.425 145.873L182.543 145.954L52.2218 210.934C53.079 217.04 55.1389 222.916 58.2824 228.22L182.447 146.546H182.58L85.3442 249.044C93.1068 251.264 100.396 250.524 107.27 248.444L182.713 147.138H182.854L144.714 234.828C146.588 234.827 148.448 235.137 150.22 235.746C152.201 236.451 154.145 237.256 156.044 238.158L183.165 147.605L183.298 147.538L177.089 249.022C181.167 251.101 185.481 253.195 189.988 255.149L183.757 147.886L183.853 147.782L218.204 263.74C223.66 264.617 229.195 264.907 234.713 264.606L184.393 147.93L184.452 147.804L263.958 255.252C268.968 251.36 271.772 246.713 273.852 241.932L185 147.79V147.642L289.828 217.024C291.092 216.387 292.4 215.843 293.743 215.396C298.525 213.811 303.022 211.47 307.063 208.462L185.57 147.42L185.525 147.286L325.77 180.949C327.411 175.292 328.222 169.427 328.175 163.537L185.947 146.894L185.866 146.776L320.065 131.487C317.341 126.317 314.164 121.399 310.571 116.791ZM182.491 145.873L182.921 145.769L182.602 145.932L182.491 145.873ZM182.654 146.509H182.521L182.898 146.258L182.654 146.509ZM182.891 147.027H182.773L183.039 146.672L182.891 147.027ZM182.78 145.34L182.699 145.251L183.143 145.303L182.78 145.34ZM183.328 147.412L183.224 147.479L183.35 147.05L183.328 147.412ZM183.113 144.867L183.069 144.756L183.468 144.955L183.113 144.867ZM184.8 144.341V144.785L184.697 144.445L184.8 144.341ZM184.186 144.267L184.364 144.682L184.149 144.393L184.186 144.267ZM183.587 144.415L183.89 144.741L183.594 144.541L183.587 144.415ZM183.779 147.76V147.316L183.883 147.656L183.779 147.76ZM184.393 147.834L184.216 147.42L184.43 147.708L184.393 147.834ZM184.327 146.672H184.112L183.92 146.576L183.772 146.421L183.69 146.221V146.006L183.749 145.799L183.883 145.629L184.06 145.51L184.267 145.459H184.482L184.674 145.555L184.822 145.71L184.904 145.91V146.125L184.845 146.332L184.711 146.502L184.534 146.62L184.327 146.672ZM184.689 147.36L184.985 147.56V147.686L184.689 147.36ZM185.895 145.621H186.029L185.651 145.873L185.895 145.621ZM185.659 145.103H185.777L185.511 145.459L185.659 145.103ZM185.252 144.689L185.355 144.622L185.229 145.044L185.252 144.689ZM185.111 147.146L185.466 147.235L185.511 147.346L185.111 147.146ZM185.437 146.798L185.74 146.82L185.821 146.909L185.437 146.798ZM185.629 146.361L185.947 146.199L186.058 146.258L185.629 146.361Z" fill="white"/>
<path d="M182.78 269.009C246.74 269.009 298.59 266.339 298.59 263.044C298.59 259.75 246.74 257.08 182.78 257.08C118.82 257.08 66.9697 259.75 66.9697 263.044C66.9697 266.339 118.82 269.009 182.78 269.009Z" fill="#374151"/>
<path d="M114.582 157.291H257.631C258.473 157.291 259.281 157.626 259.876 158.221C260.471 158.816 260.806 159.624 260.806 160.466V252.3H111.4V160.466C111.4 160.048 111.482 159.635 111.642 159.249C111.802 158.863 112.037 158.513 112.332 158.218C112.628 157.923 112.979 157.69 113.365 157.531C113.751 157.371 114.164 157.29 114.582 157.291Z" fill="#5596FE" stroke="#374151" stroke-linecap="round" stroke-linejoin="round"/>
<path d="M122.256 164.499H249.958C250.374 164.499 250.787 164.581 251.172 164.741C251.558 164.9 251.908 165.134 252.202 165.429C252.497 165.724 252.731 166.074 252.891 166.459C253.05 166.844 253.132 167.257 253.132 167.674V253.58H119.074V167.681C119.073 167.263 119.154 166.849 119.314 166.462C119.474 166.076 119.708 165.725 120.004 165.429C120.299 165.133 120.65 164.899 121.037 164.739C121.423 164.58 121.838 164.498 122.256 164.499Z" fill="#374151" stroke="#374151" stroke-linecap="round" stroke-linejoin="round"/>
<path d="M259.526 259.973H106.035C98.9678 259.973 93.2402 255.696 93.2402 250.42H272.32C272.32 255.696 266.593 259.973 259.526 259.973Z" fill="#5596FE" stroke="#374151" stroke-linecap="round" stroke-linejoin="round"/>
<path d="M185.466 69.8081C175.61 79.1839 150.398 88.6559 120.998 108.747C120.998 108.747 122.833 176.635 185.466 213.746V69.8081Z" fill="#5596FE" stroke="#374151" stroke-linecap="round" stroke-linejoin="round"/>
<path d="M185.466 69.8081C195.316 79.1839 220.535 88.6559 249.935 108.747C249.935 108.747 248.1 176.635 185.466 213.746V69.8081Z" fill="#374151" stroke="#374151" stroke-linecap="round" stroke-linejoin="round"/>
<path d="M185.466 75.5874C173.574 84.016 152.965 92.0524 125.726 110.663C125.726 110.663 127.428 173.563 185.466 207.966C243.504 173.578 245.206 110.663 245.206 110.663C217.96 92.0598 197.447 84.016 185.466 75.5874Z" fill="#374151" stroke="#374151" stroke-linecap="round" stroke-linejoin="round"/>
<path d="M235.024 103.981C193.466 116.561 161.764 153.08 147.349 172.343C157.265 186.889 170.283 199.056 185.467 207.966C243.505 173.578 245.207 110.664 245.207 110.664C241.699 108.276 238.305 106.049 235.024 103.981Z" fill="#5596FE" stroke="#374151" stroke-linecap="round" stroke-linejoin="round"/>
<path d="M208.096 139.013H163.54C162.559 139.013 161.618 138.623 160.924 137.929C160.23 137.235 159.84 136.294 159.84 135.313V114.341C159.955 107.531 162.741 101.039 167.598 96.2641C172.454 91.4889 178.992 88.813 185.803 88.813C192.614 88.813 199.152 91.4889 204.009 96.2641C208.865 101.039 211.651 107.531 211.766 114.341V135.313C211.766 136.289 211.38 137.226 210.693 137.919C210.005 138.612 209.072 139.005 208.096 139.013ZM167.27 131.613H204.396V114.341C204.299 109.482 202.3 104.855 198.83 101.453C195.359 98.0509 190.693 96.1453 185.833 96.1453C180.973 96.1453 176.307 98.0509 172.836 101.453C169.365 104.855 167.367 109.482 167.27 114.341V131.613Z" fill="white" stroke="#374151" stroke-linecap="round" stroke-linejoin="round"/>
<path d="M213.809 128.904H157.125V176.804H213.809V128.904Z" fill="white" stroke="#374151" stroke-linecap="round" stroke-linejoin="round"/>
<path d="M191.357 148.796C191.357 147.705 191.068 146.633 190.519 145.691C189.97 144.748 189.181 143.967 188.232 143.429C187.284 142.89 186.209 142.613 185.118 142.624C184.028 142.636 182.959 142.937 182.023 143.496C181.086 144.055 180.314 144.852 179.786 145.807C179.257 146.761 178.992 147.839 179.015 148.929C179.039 150.02 179.351 151.085 179.92 152.015C180.489 152.946 181.295 153.709 182.255 154.227L181.219 165.105H189.152L188.116 154.227C189.097 153.7 189.916 152.916 190.487 151.959C191.058 151.003 191.358 149.909 191.357 148.796Z" fill="#374151" stroke="#374151" stroke-linecap="round" stroke-linejoin="round"/>
<path d="M297.147 139.487L297.059 138.377" stroke="#374151" stroke-linecap="round" stroke-linejoin="round"/>
<path d="M296.844 136.164C293.914 108.428 280.977 82.7089 260.456 63.8205C239.934 44.9322 213.233 34.1685 185.349 33.5435C157.465 32.9185 130.308 42.475 108.961 60.4249C87.6136 78.3748 73.538 103.488 69.3679 131.066C69.0522 133.167 68.8055 135.276 68.6279 137.393" stroke="#374151" stroke-linecap="round" stroke-linejoin="round" stroke-dasharray="3.01 3.01"/>
<path d="M68.4946 138.487L68.4058 139.59" stroke="#374151" stroke-linecap="round" stroke-linejoin="round"/>
<path d="M93.973 120.202L100.529 93.5254H80.6382L93.973 120.202Z" fill="#374151" stroke="#374151" stroke-linecap="round" stroke-linejoin="round"/>
<path d="M93.9726 120.202L95.4304 94.5391H82.769L93.9726 120.202Z" fill="#5596FE" stroke="#374151" stroke-linecap="round" stroke-linejoin="round"/>
<path d="M93.9726 120.202L92.6184 92.541H79.957L93.9726 120.202Z" fill="#5596FE" stroke="#374151" stroke-linecap="round" stroke-linejoin="round"/>
<path d="M70.3373 91.261L67.0739 87.5684H49.8911L57.9497 120.202H93.9729L88.2601 91.261H70.3373Z" fill="#374151" stroke="#374151" stroke-linecap="round" stroke-linejoin="round"/>
<path d="M132.208 40.7559H89.2959C87.796 40.7559 86.5801 41.9718 86.5801 43.4717V66.6559C86.5801 68.1558 87.796 69.3717 89.2959 69.3717H132.208C133.708 69.3717 134.924 68.1558 134.924 66.6559V43.4717C134.924 41.9718 133.708 40.7559 132.208 40.7559Z" fill="#374151" stroke="#374151" stroke-linecap="round" stroke-linejoin="round"/>
<path d="M134.924 46.1802H86.5801V56.5402H134.924V46.1802Z" fill="#5596FE" stroke="#374151" stroke-linecap="round" stroke-linejoin="round"/>
<path d="M124.72 64.7985C124.72 64.399 124.602 64.0084 124.38 63.6762C124.158 63.3439 123.842 63.085 123.473 62.9321C123.104 62.7792 122.698 62.7392 122.306 62.8171C121.914 62.8951 121.554 63.0875 121.271 63.37C120.989 63.6526 120.796 64.0125 120.719 64.4044C120.641 64.7963 120.681 65.2025 120.833 65.5716C120.986 65.9408 121.245 66.2563 121.578 66.4783C121.91 66.7002 122.3 66.8187 122.7 66.8187C123.236 66.8187 123.75 66.6059 124.128 66.227C124.507 65.8482 124.72 65.3343 124.72 64.7985Z" fill="white" stroke="#374151" stroke-linecap="round" stroke-linejoin="round"/>
<path d="M130.336 64.7985C130.336 64.399 130.218 64.0084 129.996 63.6762C129.774 63.3439 129.458 63.085 129.089 62.9321C128.72 62.7792 128.314 62.7392 127.922 62.8171C127.53 62.8951 127.17 63.0875 126.888 63.37C126.605 63.6526 126.413 64.0125 126.335 64.4044C126.257 64.7963 126.297 65.2025 126.45 65.5716C126.603 65.9408 126.862 66.2563 127.194 66.4783C127.526 66.7002 127.917 66.8187 128.316 66.8187C128.852 66.8187 129.366 66.6059 129.745 66.227C130.123 65.8482 130.336 65.3343 130.336 64.7985Z" fill="white" stroke="#374151" stroke-linecap="round" stroke-linejoin="round"/>
<path d="M212.432 21.5825H160.662V55.1489H212.432V21.5825Z" fill="#5596FE" stroke="#374151" stroke-linecap="round" stroke-linejoin="round"/>
<path d="M210.086 23.7139H163.185V52.7441H210.086V23.7139Z" fill="#374151" stroke="#374151" stroke-linecap="round" stroke-linejoin="round"/>
<path d="M176.905 43.9603C176.905 40.7931 174.33 35.3467 171.162 35.3467C167.995 35.3467 165.413 40.7931 165.413 43.9603C165.413 47.1275 167.988 47.9119 171.162 47.9119C174.337 47.9119 176.905 47.1053 176.905 43.9603Z" fill="white" stroke="#374151" stroke-linecap="round" stroke-linejoin="round"/>
<path d="M171.162 36.3973C173.344 36.3973 175.114 34.6282 175.114 32.4457C175.114 30.2633 173.344 28.4941 171.162 28.4941C168.98 28.4941 167.21 30.2633 167.21 32.4457C167.21 34.6282 168.98 36.3973 171.162 36.3973Z" fill="white" stroke="#374151" stroke-linecap="round" stroke-linejoin="round"/>
<path d="M182.647 29.2417H192.215" stroke="white" stroke-width="2" stroke-linecap="round" stroke-linejoin="round"/>
<path d="M182.647 33.3857H192.215" stroke="white" stroke-width="2" stroke-linecap="round" stroke-linejoin="round"/>
<path d="M182.647 40.7266H204.973" stroke="white" stroke-width="2" stroke-linecap="round" stroke-linejoin="round"/>
<path d="M182.647 46.1504H204.973" stroke="white" stroke-width="2" stroke-linecap="round" stroke-linejoin="round"/>
<path d="M283.28 40.7559H244.778C242.395 40.7559 240.463 42.6874 240.463 45.0701V65.1093C240.463 67.4919 242.395 69.4235 244.778 69.4235H283.28C285.662 69.4235 287.594 67.4919 287.594 65.1093V45.0701C287.594 42.6874 285.662 40.7559 283.28 40.7559Z" fill="#374151" stroke="#374151" stroke-width="2" stroke-linecap="round" stroke-linejoin="round"/>
<path d="M265.912 54.3719L287.594 43.4051V42.9019C287.594 42.3327 287.368 41.7869 286.965 41.3844C286.563 40.982 286.017 40.7559 285.448 40.7559H242.617C242.047 40.7559 241.5 40.9817 241.097 41.384C240.693 41.7862 240.465 42.332 240.463 42.9019V43.5013L261.753 54.4237C262.402 54.7403 263.117 54.9006 263.839 54.8916C264.561 54.8826 265.271 54.7046 265.912 54.3719Z" fill="#5596FE" stroke="#374151" stroke-width="2" stroke-linecap="round" stroke-linejoin="round"/>
<path d="M311.355 90.7354H269.715C268.06 90.7354 266.718 92.0771 266.718 93.7323V111.781C266.718 113.436 268.06 114.778 269.715 114.778H311.355C313.01 114.778 314.352 113.436 314.352 111.781V93.7323C314.352 92.0771 313.01 90.7354 311.355 90.7354Z" fill="#374151"/>
<path d="M266.726 108.488V121.401L273.926 113.113" fill="#374151"/>
<path d="M283.331 103.197C283.333 102.708 283.189 102.229 282.918 101.821C282.647 101.414 282.261 101.096 281.809 100.908C281.357 100.72 280.86 100.67 280.379 100.765C279.899 100.861 279.458 101.096 279.112 101.442C278.766 101.788 278.53 102.229 278.435 102.709C278.34 103.19 278.39 103.687 278.578 104.139C278.766 104.591 279.084 104.977 279.491 105.248C279.899 105.519 280.378 105.663 280.867 105.661C281.52 105.66 282.146 105.399 282.607 104.938C283.069 104.476 283.329 103.85 283.331 103.197Z" fill="#5596FE"/>
<path d="M293.906 103.197C293.908 102.708 293.764 102.229 293.493 101.821C293.222 101.414 292.836 101.096 292.384 100.908C291.932 100.72 291.434 100.67 290.954 100.765C290.474 100.861 290.033 101.096 289.687 101.442C289.341 101.788 289.105 102.229 289.01 102.709C288.915 103.19 288.964 103.687 289.152 104.139C289.34 104.591 289.658 104.977 290.066 105.248C290.474 105.519 290.952 105.663 291.442 105.661C292.095 105.66 292.72 105.399 293.182 104.938C293.644 104.476 293.904 103.85 293.906 103.197Z" fill="#5596FE"/>
<path d="M304.488 103.197C304.49 102.708 304.346 102.23 304.075 101.822C303.804 101.415 303.419 101.097 302.967 100.909C302.516 100.72 302.019 100.67 301.539 100.765C301.059 100.859 300.618 101.094 300.271 101.44C299.925 101.785 299.689 102.225 299.593 102.705C299.497 103.185 299.546 103.682 299.732 104.134C299.919 104.586 300.236 104.972 300.643 105.244C301.049 105.516 301.527 105.661 302.017 105.661C302.67 105.66 303.297 105.4 303.759 104.938C304.222 104.477 304.484 103.851 304.488 103.197Z" fill="#5596FE"/>
<path d="M93.7213 150.719C93.6056 150.568 93.4567 150.445 93.286 150.361C93.1154 150.276 92.9276 150.232 92.7371 150.231H60.7691L59.5407 146.531C59.4572 146.285 59.2988 146.072 59.0878 145.92C58.8768 145.769 58.6237 145.688 58.3641 145.688H50.2685C49.9563 145.712 49.6647 145.853 49.452 146.082C49.2393 146.312 49.1211 146.614 49.1211 146.927C49.1211 147.24 49.2393 147.542 49.452 147.772C49.6647 148.001 49.9563 148.142 50.2685 148.167H57.4687L65.2757 171.588C65.3581 171.834 65.5162 172.048 65.7275 172.2C65.9387 172.351 66.1923 172.432 66.4523 172.431H66.9037C66.459 173.116 66.2226 173.916 66.2229 174.733C66.2189 175.399 66.3708 176.057 66.6663 176.654C66.9618 177.252 67.3929 177.772 67.925 178.173C68.4572 178.574 69.0757 178.845 69.7313 178.965C70.3869 179.085 71.0614 179.05 71.701 178.863C72.3406 178.676 72.9277 178.342 73.4153 177.887C73.903 177.433 74.2777 176.871 74.5097 176.246C74.7417 175.622 74.8244 174.951 74.7514 174.289C74.6784 173.627 74.4516 172.99 74.0891 172.431H80.0091C79.5644 173.116 79.328 173.916 79.3282 174.733C79.3043 175.309 79.397 175.884 79.601 176.423C79.805 176.963 80.1159 177.455 80.5151 177.871C80.9143 178.287 81.3935 178.619 81.9239 178.845C82.4544 179.071 83.0251 179.188 83.6017 179.188C84.1784 179.188 84.7491 179.071 85.2796 178.845C85.81 178.619 86.2892 178.287 86.6884 177.871C87.0876 177.455 87.3986 176.963 87.6025 176.423C87.8065 175.884 87.8992 175.309 87.8753 174.733C87.8755 173.916 87.6391 173.116 87.1945 172.431H88.1491C88.3199 172.444 88.4916 172.422 88.6534 172.366C88.8152 172.309 88.9637 172.22 89.0894 172.104C89.2151 171.988 89.3155 171.846 89.3841 171.689C89.4527 171.532 89.4881 171.363 89.4881 171.192C89.4881 171.02 89.4527 170.851 89.3841 170.694C89.3155 170.537 89.2151 170.396 89.0894 170.279C88.9637 170.163 88.8152 170.074 88.6534 170.017C88.4916 169.961 88.3199 169.939 88.1491 169.952H67.3403L65.9713 165.86H89.1925C89.4653 165.86 89.7304 165.77 89.9471 165.604C90.1637 165.438 90.3198 165.206 90.3913 164.942L93.9285 151.8C93.9803 151.616 93.9885 151.423 93.9526 151.235C93.9166 151.048 93.8374 150.871 93.7213 150.719ZM70.4927 176.523C70.1385 176.523 69.7922 176.418 69.4977 176.221C69.2032 176.025 68.9737 175.745 68.8382 175.418C68.7026 175.091 68.6672 174.731 68.7363 174.383C68.8054 174.036 68.9759 173.717 69.2264 173.466C69.4768 173.216 69.7959 173.045 70.1433 172.976C70.4907 172.907 70.8507 172.942 71.178 173.078C71.5052 173.214 71.7849 173.443 71.9816 173.738C72.1784 174.032 72.2835 174.378 72.2835 174.733C72.2815 175.207 72.0922 175.661 71.7568 175.997C71.4214 176.332 70.967 176.521 70.4927 176.523ZM83.6425 176.523C83.2883 176.523 82.942 176.418 82.6475 176.221C82.353 176.025 82.1235 175.745 81.988 175.418C81.8524 175.091 81.817 174.731 81.8861 174.383C81.9552 174.036 82.1257 173.717 82.3762 173.466C82.6266 173.216 82.9457 173.045 83.2931 172.976C83.6405 172.907 84.0005 172.942 84.3278 173.078C84.655 173.214 84.9347 173.443 85.1315 173.738C85.3282 174.032 85.4333 174.378 85.4333 174.733C85.4323 174.969 85.3846 175.204 85.2928 175.422C85.2011 175.64 85.0672 175.838 84.8987 176.004C84.7303 176.171 84.5306 176.302 84.3112 176.391C84.0918 176.48 83.857 176.525 83.6203 176.523H83.6425ZM86.9503 163.381H82.3549V152.74H86.9503V163.381ZM75.2731 152.74H79.8685V163.403H75.2731V152.74ZM72.7941 163.403H68.1987V152.74H72.7941V163.403ZM61.5978 152.74H65.7123V163.403H65.1573L61.5978 152.74ZM89.4293 159.015V152.74H91.1165L89.4293 159.015Z" fill="#374151"/>
<path d="M295.371 144.726C291.833 144.724 288.374 145.772 285.432 147.737C282.489 149.702 280.196 152.495 278.841 155.763C277.486 159.032 277.131 162.629 277.821 166.099C278.511 169.569 280.215 172.757 282.717 175.259C285.218 177.76 288.406 179.464 291.876 180.154C295.347 180.844 298.943 180.489 302.212 179.134C305.48 177.78 308.274 175.486 310.238 172.544C312.203 169.601 313.251 166.142 313.25 162.604C313.244 157.864 311.358 153.32 308.007 149.969C304.655 146.617 300.111 144.731 295.371 144.726ZM295.371 146.946C296.851 146.946 298.464 148.884 299.604 152.126H291.138C292.3 148.884 293.869 146.946 295.371 146.946ZM300.248 154.346C300.791 156.684 301.092 159.072 301.143 161.472H289.592C289.644 159.072 289.944 156.684 290.487 154.346H300.248ZM301.18 163.714C301.119 166.51 300.707 169.287 299.952 171.98H290.82C290.08 169.295 289.68 166.528 289.629 163.744L301.18 163.714ZM287.401 161.494H279.757C279.937 158.966 280.729 156.521 282.066 154.368H288.193C287.691 156.711 287.413 159.098 287.364 161.494H287.401ZM287.401 163.714C287.439 166.501 287.794 169.274 288.46 171.98H282.828C281.033 169.587 279.967 166.727 279.757 163.744L287.401 163.714ZM289.155 174.2C289.591 175.413 290.172 176.568 290.887 177.641C288.639 176.962 286.573 175.786 284.841 174.2H289.155ZM291.56 174.2H299.175C298.087 176.79 296.688 178.299 295.371 178.299C294.054 178.299 292.655 176.76 291.56 174.2ZM301.58 174.2H305.894C304.162 175.786 302.096 176.962 299.848 177.641C300.563 176.568 301.144 175.413 301.58 174.2ZM302.275 171.98C302.968 169.277 303.345 166.503 303.4 163.714H311.007C310.795 166.711 309.718 169.582 307.907 171.98H302.275ZM303.4 161.494C303.351 159.098 303.074 156.711 302.571 154.368H308.699C310.035 156.521 310.828 158.966 311.007 161.494H303.4ZM307.026 152.148H301.987C301.51 150.538 300.799 149.008 299.878 147.604C302.621 148.441 305.083 150.012 306.997 152.148H307.026ZM290.916 147.604C289.995 149.006 289.287 150.538 288.815 152.148H283.768C285.682 150.012 288.144 148.441 290.887 147.604H290.916Z" fill="#374151"/>
</g>
<defs>
<clipPath id="clip0_7_1518">
<rect width="370" height="269" fill="white"/>
</clipPath>
</defs>
</svg>
